<svg width="1088" height="67" viewBox="0 0 1088 67" fill="none" xmlns="http://www.w3.org/2000/svg">
<path d="M0.759995 65V0.967987H27.64C47.8 0.967987 62.296 13.064 62.296 32.936C62.296 52.808 47.8 65 27.736 65H0.759995ZM17.272 50.6H27.64C38.872 50.6 45.4 42.44 45.4 32.936C45.4 23.048 39.448 15.368 27.736 15.368H17.272V50.6Z" fill="#4C4CFF"/>
<path d="M106.222 65L95.47 43.304H87.022V65H70.51V0.967987H102.574C116.782 0.967987 124.846 10.376 124.846 22.28C124.846 33.416 118.03 39.368 112.078 41.48L125.134 65H106.222ZM108.046 22.088C108.046 17.672 104.398 14.888 100.078 14.888H87.022V29.288H100.078C104.398 29.288 108.046 26.504 108.046 22.088Z" fill="#4C4CFF"/>
<path d="M133.979 65V0.967987H180.923V14.888H150.491V25.544H180.251V39.56H150.491V51.08H180.923V65H133.979Z" fill="#4C4CFF"/>
<path d="M234.766 65L231.502 55.304H204.91L201.646 65H183.694L207.79 0.967987H228.526L252.718 65H234.766ZM218.158 15.368L209.23 41.384H227.182L218.158 15.368Z" fill="#4C4CFF"/>
<path d="M313.607 65V21.8L297.383 65H290.088L273.959 21.8V65H257.447V0.967987H280.391L293.735 37.256L307.175 0.967987H330.119V65H313.607Z" fill="#4C4CFF"/>
<path d="M339.715 57.128C339.715 52.232 343.843 48.104 348.739 48.104C353.635 48.104 357.763 52.232 357.763 57.128C357.763 62.024 353.635 66.152 348.739 66.152C343.843 66.152 339.715 62.024 339.715 57.128Z" fill="#4C4CFF"/>
<path d="M392.072 65V0.967987H428.36C441.032 0.967987 447.08 9.22399 447.08 17.288C447.08 25.256 442.184 30.632 436.136 31.976C442.952 33.032 448.329 39.56 448.329 47.624C448.329 56.936 442.088 65 429.512 65H392.072ZM408.584 25.736H424.617C427.977 25.736 430.281 23.336 430.281 20.168C430.281 17 427.977 14.696 424.617 14.696H408.584V25.736ZM408.584 51.272H425.192C429.128 51.272 431.528 48.872 431.528 45.416C431.528 42.152 429.224 39.368 425.192 39.368H408.584V51.272Z" fill="#4C4CFF"/>
<path d="M457.322 39.08V0.967987H474.122V38.504C474.122 46.088 478.155 51.56 487.083 51.56C495.915 51.56 499.946 46.088 499.946 38.504V0.967987H516.747V38.984C516.747 54.92 507.627 66.152 487.083 66.152C466.539 66.152 457.322 54.824 457.322 39.08Z" fill="#4C4CFF"/>
<path d="M528.291 65V0.967987H544.803V65H528.291Z" fill="#4C4CFF"/>
<path d="M556.322 65V0.967987H572.835V50.6H598.562V65H556.322Z" fill="#4C4CFF"/>
<path d="M607.135 65V0.967987H634.015C654.175 0.967987 668.671 13.064 668.671 32.936C668.671 52.808 654.175 65 634.111 65H607.135ZM623.647 50.6H634.015C645.247 50.6 651.775 42.44 651.775 32.936C651.775 23.048 645.823 15.368 634.111 15.368H623.647V50.6Z" fill="#4C4CFF"/>
<path d="M672.809 57.128C672.809 52.232 676.937 48.104 681.833 48.104C686.729 48.104 690.857 52.232 690.857 57.128C690.857 62.024 686.729 66.152 681.833 66.152C676.937 66.152 672.809 62.024 672.809 57.128Z" fill="#4C4CFF"/>
<path d="M760.878 65L750.126 43.304H741.678V65H725.166V0.967987H757.23C771.438 0.967987 779.502 10.376 779.502 22.28C779.502 33.416 772.686 39.368 766.734 41.48L779.79 65H760.878ZM762.702 22.088C762.702 17.672 759.054 14.888 754.734 14.888H741.678V29.288H754.734C759.054 29.288 762.702 26.504 762.702 22.088Z" fill="#4C4CFF"/>
<path d="M788.635 65V0.967987H835.579V14.888H805.147V25.544H834.907V39.56H805.147V51.08H835.579V65H788.635Z" fill="#4C4CFF"/>
<path d="M845.166 65V0.967987H877.23C891.63 0.967987 899.502 10.664 899.502 22.28C899.502 33.8 891.63 43.304 877.23 43.304H861.678V65H845.166ZM882.702 22.184C882.702 17.768 879.438 14.888 875.022 14.888H861.678V29.288H875.022C879.438 29.288 882.702 26.504 882.702 22.184Z" fill="#4C4CFF"/>
<path d="M906.854 65V0.967987H953.798V14.888H923.366V25.544H953.126V39.56H923.366V51.08H953.798V65H906.854Z" fill="#4C4CFF"/>
<path d="M1007.64 65L1004.38 55.304H977.785L974.521 65H956.569L980.665 0.967987H1001.4L1025.59 65H1007.64ZM991.033 15.368L982.105 41.384H1000.06L991.033 15.368Z" fill="#4C4CFF"/>
<path d="M1038.72 65V15.368H1020.77V0.967987H1073.09V15.368H1055.23V65H1038.72Z" fill="#4C4CFF"/>
<path d="M1069.65 57.128C1069.65 52.232 1073.78 48.104 1078.68 48.104C1083.57 48.104 1087.7 52.232 1087.7 57.128C1087.7 62.024 1083.57 66.152 1078.68 66.152C1073.78 66.152 1069.65 62.024 1069.65 57.128Z" fill="#4C4CFF"/>
</svg>
